Coordinates
version=1
nRows=16
nColumns=36
inDegrees=yes

Units are S.I. units (second, meters, Newtons, ...)
Angles are in degrees.

endheader
time	pelvis_tilt	pelvis_list	pelvis_rotation	pelvis_tx	pelvis_ty	pelvis_tz	hip_flexion_r	hip_adduction_r	hip_rotation_r	knee_angle_r	ankle_angle_r	subtalar_angle_r	hip_flexion_l	hip_adduction_l	hip_rotation_l	knee_angle_l	ankle_angle_l	subtalar_angle_l	lumbar_extension	lumbar_bending	lumbar_rotation	arm_flex_r	arm_add_r	arm_rot_r	elbow_flex_r	pro_sup_r	wrist_flex_r	wrist_dev_r	arm_flex_l	arm_add_l	arm_rot_l	elbow_flex_l	pro_sup_l	wrist_flex_l	wrist_dev_l
      0.90000000	     -2.40917036	      3.66261688	      0.38405957	     -1.14483960	      0.92274967	     -0.27614869	     27.47713699	     -1.68865852	     -1.34070906	    -57.40520783	      0.67723245	     -7.30159658	      7.99514006	      8.37500319	      5.84085015	    -21.98758084	     11.11725330	      0.44225849	     -4.54145866	     -3.15130382	     -2.58964556	     -2.53639204	    -17.06577412	     15.37410270	     21.02520512	     86.51662706	      0.00000000	      0.00000000	      1.43148434	    -16.29126348	     27.25111289	     21.94081013	     86.51662706	      0.00000000	      0.00000000
      0.91000000	     -2.29694499	      3.31670233	      0.63728141	     -1.13267708	      0.92329856	     -0.27632413	     27.90477703	     -1.49864788	     -1.82835003	    -54.58379919	      1.20313363	     -8.02369554	      6.53689857	      7.98642353	      6.28484859	    -21.14720380	     11.56741561	      0.42958639	     -4.70431807	     -2.69337363	     -3.24483413	     -2.81075801	    -17.05302952	     15.01186744	     20.33214635	     86.51662706	      0.00000000	      0.00000000	      1.99149528	    -16.56927452	     27.38051642	     23.13981009	     86.51662706	      0.00000000	      0.00000000
      0.92000000	     -2.18045541	      3.08806579	      0.81702656	     -1.12047593	      0.92360576	     -0.27636027	     28.27063347	     -1.41693597	     -2.27899716	    -51.61794393	      1.51747656	     -8.63289785	      5.06461053	      7.68847374	      6.55515241	    -20.27345411	     11.97067066	      0.51478318	     -4.86610274	     -2.38414176	     -3.79691466	     -3.08737142	    -17.02345653	     14.67347288	     19.72238678	     86.51662706	      0.00000000	      0.00000000	      2.55048946	    -16.88295264	     27.34826292	     24.31634505	     86.51662706	      0.00000000	      0.00000000
      0.93000000	     -2.06145919	      2.95186273	      0.94581478	     -1.10823026	      0.92367980	     -0.27629707	     28.56420505	     -1.42007548	     -2.69735180	    -48.49962144	      1.67637817	     -9.09048099	      3.58610135	      7.46399442	      6.68759215	    -19.38010749	     12.32992684	      0.67894104	     -5.03045568	     -2.19106878	     -4.27054337	     -3.36283723	    -16.97953004	     14.36073879	     19.17292367	     86.51662706	      0.00000000	      0.00000000	      3.10854658	    -17.21996711	     27.18494047	     25.47049934	     86.51662706	      0.00000000	      0.00000000
      0.94000000	     -1.94133343	      2.87932913	      1.04918802	     -1.09593432	      0.92353465	     -0.27617729	     28.77388820	     -1.48040297	     -3.09437084	    -45.22425057	      1.74518689	     -9.34226598	      2.11163601	      7.29186608	      6.72394075	    -18.48635413	     12.64826764	      0.89983580	     -5.20062852	     -2.07686678	     -4.69339591	     -3.63223475	    -16.92366548	     14.07703465	     18.65650849	     86.51662706	      0.00000000	      0.00000000	      3.66550639	    -17.56608979	     26.92734515	     26.60058551	     86.51662706	      0.00000000	      0.00000000
      0.95000000	     -1.82092961	      2.84418405	      1.14894113	     -1.08358221	      0.92318429	     -0.27603006	     28.89069577	     -1.57189499	     -3.48868075	    -41.79760395	      1.78279661	     -9.32859156	      0.65188992	      7.15095777	      6.70314121	    -17.61438591	     12.92853722	      1.15637362	     -5.37811200	     -2.00828333	     -5.08914042	     -3.88972046	    -16.85753553	     13.82736969	     18.14763384	     86.51662706	      0.00000000	      0.00000000	      4.22065797	    -17.90869309	     26.61052286	     27.70256472	     86.51662706	      0.00000000	      0.00000000
      0.96000000	     -1.70090315	      2.82575704	      1.25926377	     -1.07117043	      0.92264616	     -0.27585916	     28.91110395	     -1.67362958	     -3.90579588	    -38.24160761	      1.83255811	     -8.99552982	     -0.78336097	      7.02254729	      6.65688153	    -16.78711339	     13.17333385	      1.43090202	     -5.56229762	     -1.96041174	     -5.47370800	     -4.12925841	    -16.78199708	     13.61813178	     17.62618638	     86.51662706	      0.00000000	      0.00000000	      4.77224751	    -18.23860248	     26.26263734	     28.77037889	     86.51662706	      0.00000000	      0.00000000
      0.97000000	     -1.58148327	      2.80968041	      1.38582489	     -1.05869842	      0.92194754	     -0.27564345	     28.83969714	     -1.77085239	     -4.37499772	    -34.59831392	      1.91948070	     -8.30570816	     -2.18565906	      6.89175229	      6.60831198	    -16.02612253	     13.38496768	      1.70998614	     -5.75105599	     -1.91725895	     -5.85445837	     -4.34529297	    -16.69742121	     13.45648381	     17.07912113	     86.51662706	      0.00000000	      0.00000000	      5.31698170	    -18.55029399	     25.90242546	     29.79698246	     86.51662706	      0.00000000	      0.00000000
      0.98000000	     -1.46191392	      2.78751106	      1.52707141	     -1.04615806	      0.92111663	     -0.27535757	     28.69102523	     -1.85375543	     -4.92438261	    -30.93153014	      2.05237991	     -7.24712474	     -3.54777790	      6.74834660	      6.57264216	    -15.35027451	     13.56517876	      1.98423948	     -5.94168760	     -1.87014549	     -6.23153723	     -4.53319568	    -16.60415857	     13.34952804	     16.50066854	     86.51662706	      0.00000000	      0.00000000	      5.84990579	    -18.84089059	     25.53878363	     30.77575321	     86.51662706	      0.00000000	      0.00000000
      0.99000000	     -1.34078748	      2.75570972	      1.67654790	     -1.03352868	      0.92017352	     -0.27499508	     28.48883269	     -1.91534130	     -5.57464236	    -27.32586757	      2.22901663	     -5.83869333	     -4.86336148	      6.58683385	      6.55874643	    -14.77538041	     13.71466134	      2.24776526	     -6.13163293	     -1.81544152	     -6.60051254	     -4.68946580	    -16.50292925	     13.30340973	     15.89160690	     86.51662706	      0.00000000	      0.00000000	      6.36471882	    -19.10876752	     25.17195722	     31.70190716	     86.51662706	      0.00000000	      0.00000000
      1.00000000	     -1.21707902	      2.71391702	      1.82555259	     -1.02078932	      0.91913743	     -0.27456385	     28.26243064	     -1.94993183	     -6.33242106	    -23.88254818	      2.44209325	     -4.13184161	     -6.12629563	      6.40588102	      6.57112005	    -14.31490880	     13.83271375	      2.49767806	     -6.31871937	     -1.75239491	     -6.95539505	     -4.81180975	    -16.39500952	     13.32253260	     15.25802960	     86.51662706	      0.00000000	      0.00000000	      6.85416277	    -19.35255873	     24.79581887	     32.57354271	     86.51662706	      0.00000000	      0.00000000
      1.01000000	     -1.09053596	      2.66324759	      1.96589617	     -1.00792783	      0.91802912	     -0.27406714	     28.04167254	     -1.95261695	     -7.18485314	    -20.71140543	      2.68420555	     -2.20820396	     -7.32982956	      6.20751016	      6.61156213	    -13.98108287	     13.91744239	      2.73401110	     -6.50104170	     -1.68133769	     -7.29130196	     -4.89930160	    -16.28221203	     13.40901168	     14.60989342	     86.51662706	      0.00000000	      0.00000000	      7.31013448	    -19.57093354	     24.40071816	     33.39205345	     86.51662706	      0.00000000	      0.00000000
      1.02000000	     -0.96146985	      2.60522303	      2.09220641	     -0.99493994	      0.91686269	     -0.27350135	     27.85185273	     -1.91949038	     -8.09718240	    -17.91987645	      2.95036111	     -0.17408959	     -8.46604168	      5.99612192	      6.68004191	    -13.78567573	     13.96667300	      2.96012950	     -6.67658914	     -1.60249098	     -7.60622218	     -4.95279298	    -16.16675510	     13.56241421	     13.95952316	     86.51662706	      0.00000000	      0.00000000	      7.72345808	    -19.76296939	     23.97638875	     34.16183387	     86.51662706	      0.00000000	      0.00000000
      1.03000000	     -0.83078355	      2.54121203	      2.20305157	     -0.98182666	      0.91564911	     -0.27286417	     27.70969254	     -1.84872839	     -9.01495213	    -15.60097436	      3.23729044	      1.84727136	     -9.52642966	      5.77699592	      6.77443417	    -13.74010293	     13.97923807	      3.18355893	     -6.84256394	     -1.51542634	     -7.90160548	     -4.97558847	    -16.05111678	     13.77976747	     13.32018008	     86.51662706	      0.00000000	      0.00000000	      8.08353003	    -19.92860035	     23.51445642	     34.88937126	     86.51662706	      0.00000000	      0.00000000
      1.04000000	     -0.70011892	      2.47187772	      2.30064228	     -0.96858722	      0.91440499	     -0.27215386	     27.62117906	     -1.74197765	     -9.87127292	    -13.82268076	      3.53953944	      3.72480279	    -10.50325841	      5.55430445	      6.88922961	    -13.85463057	     13.95593256	      3.41688487	     -6.99412679	     -1.41905555	     -8.18169325	     -4.97414882	    -15.93795768	     14.05576689	     12.70477423	     86.51662706	      0.00000000	      0.00000000	      8.37821568	    -20.06866851	     23.01021183	     35.58193962	     86.51662706	      0.00000000	      0.00000000
      1.05000000	     -0.57193099	      2.39660102	      2.38948889	     -0.95521173	      0.91314707	     -0.27137030	     27.58111521	     -1.60435327	    -10.59828602	    -12.62082716	      3.84331317	      5.32945097	    -11.39043373	      5.32946807	      7.01371973	    -14.13689031	     13.89934929	      3.67814990	     -7.12258676	     -1.31194706	     -8.45169373	     -4.95837957	    -15.83017165	     14.38310176	     12.12480809	     86.51662706	      0.00000000	      0.00000000	      8.59435235	    -20.18444296	     22.46347214	     36.24617112	     86.51662706	      0.00000000	      0.00000000
